<svg width="11" height="11" viewBox="0 0 11 11" fill="none" xmlns="http://www.w3.org/2000/svg">
<path fill-rule="evenodd" clip-rule="evenodd" d="M5.5 0C2.4625 0 0 2.4625 0 5.5C0 8.5375 2.4625 11 5.5 11C8.5375 11 11 8.5375 11 5.5C11 2.4625 8.5375 0 5.5 0ZM7.3535 4.3535C7.44458 4.2592 7.49498 4.1329 7.49384 4.0018C7.4927 3.8707 7.44011 3.74529 7.34741 3.65259C7.25471 3.55989 7.1293 3.5073 6.9982 3.50616C6.8671 3.50502 6.7408 3.55542 6.6465 3.6465L5.5 4.793L4.3535 3.6465C4.30738 3.59875 4.2522 3.56065 4.1912 3.53445C4.1302 3.50824 4.06459 3.49445 3.9982 3.49387C3.93181 3.4933 3.86597 3.50595 3.80452 3.53109C3.74307 3.55623 3.68725 3.59336 3.6403 3.6403C3.59336 3.68725 3.55623 3.74307 3.53109 3.80452C3.50595 3.86597 3.4933 3.93181 3.49387 3.9982C3.49445 4.06459 3.50824 4.1302 3.53445 4.1912C3.56065 4.2522 3.59875 4.30738 3.6465 4.3535L4.793 5.5L3.6465 6.6465C3.59875 6.69262 3.56065 6.7478 3.53445 6.8088C3.50824 6.8698 3.49445 6.93541 3.49387 7.0018C3.4933 7.06819 3.50595 7.13403 3.53109 7.19548C3.55623 7.25693 3.59336 7.31275 3.6403 7.3597C3.68725 7.40664 3.74307 7.44377 3.80452 7.46891C3.86597 7.49405 3.93181 7.5067 3.9982 7.50613C4.06459 7.50555 4.1302 7.49176 4.1912 7.46555C4.2522 7.43935 4.30738 7.40126 4.3535 7.3535L5.5 6.207L6.6465 7.3535C6.7408 7.44458 6.8671 7.49498 6.9982 7.49384C7.1293 7.4927 7.25471 7.44011 7.34741 7.34741C7.44011 7.25471 7.4927 7.1293 7.49384 6.9982C7.49498 6.8671 7.44458 6.7408 7.3535 6.6465L6.207 5.5L7.3535 4.3535Z" fill="#FB4646"/>
</svg>
