<svg width="10" height="10" viewBox="0 0 10 10" fill="none" xmlns="http://www.w3.org/2000/svg">
<path d="M1 8.5H9V6H10V9C10 9.13261 9.94732 9.25979 9.85355 9.35355C9.75979 9.44732 9.63261 9.5 9.5 9.5H0.5C0.367392 9.5 0.240215 9.44732 0.146447 9.35355C0.0526784 9.25979 0 9.13261 0 9V6H1V8.5ZM5 4H3.5C3.02653 3.99967 2.55973 4.11156 2.13786 4.32649C1.71598 4.54142 1.35106 4.85328 1.073 5.2365C1.25049 4.32524 1.73931 3.50404 2.45574 2.91359C3.17217 2.32313 4.07161 2.00016 5 2V0L9 3L5 6V4Z" fill="white"/>
</svg>
