<svg width="10" height="10" viewBox="0 0 10 10" fill="none" xmlns="http://www.w3.org/2000/svg">
<path d="M9 8.5H1V6H0V9C0 9.13261 0.0526781 9.25979 0.146446 9.35355C0.240214 9.44732 0.367392 9.5 0.5 9.5H9.5C9.63261 9.5 9.75979 9.44732 9.85355 9.35355C9.94732 9.25979 10 9.13261 10 9V6H9V8.5ZM5 4H6.5C6.97347 3.99967 7.44027 4.11156 7.86214 4.32649C8.28402 4.54142 8.64894 4.85328 8.927 5.2365C8.74951 4.32524 8.26069 3.50404 7.54426 2.91359C6.82783 2.32313 5.92839 2.00016 5 2V0L1 3L5 6V4Z" fill="white"/>
</svg>
